<svg width="45" height="40" viewBox="0 0 45 40" fill="none" xmlns="http://www.w3.org/2000/svg">
<path d="M22.5 23.3332V26.6665C19.5163 26.6665 16.6548 27.7201 14.545 29.5954C12.4353 31.4708 11.25 34.0143 11.25 36.6665H7.5C7.5 33.1303 9.08035 29.7389 11.8934 27.2384C14.7064 24.7379 18.5218 23.3332 22.5 23.3332ZM22.5 21.6665C16.2844 21.6665 11.25 17.1915 11.25 11.6665C11.25 6.1415 16.2844 1.6665 22.5 1.6665C28.7156 1.6665 33.75 6.1415 33.75 11.6665C33.75 17.1915 28.7156 21.6665 22.5 21.6665ZM22.5 18.3332C26.6437 18.3332 30 15.3498 30 11.6665C30 7.98317 26.6437 4.99984 22.5 4.99984C18.3562 4.99984 15 7.98317 15 11.6665C15 15.3498 18.3562 18.3332 22.5 18.3332ZM33.75 35.8332L28.2394 38.4082L29.2913 32.9548L24.8344 29.0915L30.9956 28.2948L33.75 23.3332L36.5062 28.2948L42.6656 29.0915L38.2087 32.9548L39.2587 38.4082L33.75 35.8332Z" fill="black"/>
</svg>
