<svg width="52" height="52" viewBox="0 0 52 52" fill="none" xmlns="http://www.w3.org/2000/svg">
<path d="M48 3.5C48 2.7 47.3 2 46.5 2H15.5C14.7 2 14 2.7 14 3.5V8.5C14 9.3 14.7 10 15.5 10H46.5C47.3 10 48 9.3 48 8.5V3.5Z" fill="black"/>
<path d="M10 15.5C10 14.7 9.3 14 8.5 14H5.5C4.7 14 4 14.7 4 15.5V28.5C4 29.3 4.7 30 5.5 30H8.5C9.3 30 10 29.3 10 28.5V15.5Z" fill="black"/>
<path d="M10 35.5C10 34.7 9.3 34 8.5 34H5.5C4.7 34 4 34.7 4 35.5V48.5C4 49.3 4.7 50 5.5 50H8.5C9.3 50 10 49.3 10 48.5V35.5Z" fill="black"/>
<path d="M29 15.5C29 14.7 28.3 14 27.5 14H15.5C14.7 14 14 14.7 14 15.5V18.5C14 19.3 14.7 20 15.5 20H27.5C28.3 20 29 19.3 29 18.5V15.5Z" fill="black"/>
<path d="M48 15.5C48 14.7 47.3 14 46.5 14H34.5C33.7 14 33 14.7 33 15.5V18.5C33 19.3 33.7 20 34.5 20H46.5C47.3 20 48 19.3 48 18.5V15.5Z" fill="black"/>
<path d="M29 25.5C29 24.7 28.3 24 27.5 24H15.5C14.7 24 14 24.7 14 25.5V28.5C14 29.3 14.7 30 15.5 30H27.5C28.3 30 29 29.3 29 28.5V25.5Z" fill="black"/>
<path d="M48 25.5C48 24.7 47.3 24 46.5 24H34.5C33.7 24 33 24.7 33 25.5V28.5C33 29.3 33.7 30 34.5 30H46.5C47.3 30 48 29.3 48 28.5V25.5Z" fill="black"/>
<path d="M29 35.5C29 34.7 28.3 34 27.5 34H15.5C14.7 34 14 34.7 14 35.5V38.5C14 39.3 14.7 40 15.5 40H27.5C28.3 40 29 39.3 29 38.5V35.5Z" fill="black"/>
<path d="M48 35.5C48 34.7 47.3 34 46.5 34H34.5C33.7 34 33 34.7 33 35.5V38.5C33 39.3 33.7 40 34.5 40H46.5C47.3 40 48 39.3 48 38.5V35.5Z" fill="black"/>
<path d="M29 45.5C29 44.7 28.3 44 27.5 44H15.5C14.7 44 14 44.7 14 45.5V48.5C14 49.3 14.7 50 15.5 50H27.5C28.3 50 29 49.3 29 48.5V45.5Z" fill="black"/>
<path d="M48 45.5C48 44.7 47.3 44 46.5 44H34.5C33.7 44 33 44.7 33 45.5V48.5C33 49.3 33.7 50 34.5 50H46.5C47.3 50 48 49.3 48 48.5V45.5Z" fill="black"/>
</svg>
