<svg width="41" height="36" viewBox="0 0 41 36" fill="none" xmlns="http://www.w3.org/2000/svg">
<path d="M35.4383 10.116C35.1613 9.77464 34.7133 9.572 34.2359 9.572H28.5642C27.9627 9.572 27.4214 9.89234 27.1955 10.3818L23.3468 18.7231H19.8832L18.4332 6.84402C18.3528 6.18512 17.7195 5.68555 16.9648 5.68555H1.4768C0.661205 5.68555 0 6.26612 0 6.98225C0 7.69838 0.661205 8.27895 1.4768 8.27895H2.12543V18.8563C1.9294 18.7719 1.70983 18.7232 1.4768 18.7232C0.661205 18.7231 0 19.3037 0 20.0198V22.8732C0 23.3898 0.344977 23.8346 0.842822 24.043C1.73345 23.3121 2.92806 22.8635 4.2403 22.8635H20.3886L20.1998 21.3164H24.3418C24.9433 21.3164 25.4846 20.9961 25.7105 20.5066L29.5592 12.1653H33.475L34.4467 13.3622H38.0739L35.4383 10.116ZM6.82482 16.1072H5.07896V8.27895H6.82482V16.1072ZM9.77834 16.1072V8.27895H15.6378L16.5934 16.1072H9.77834V16.1072Z" fill="black"/>
<path d="M34.7402 14.6592V14.6593V17.9626C37.4343 19.0068 39.6205 20.7916 40.9999 23.0656V14.6592H34.7402Z" fill="black"/>
<path d="M29.3183 24.1602H4.24047C2.30834 24.1602 0.736328 25.5403 0.736328 27.237C0.736328 28.9336 2.30834 30.3138 4.24047 30.3138H29.3182C31.2503 30.3138 32.8224 28.9336 32.8224 27.237C32.8224 25.5403 31.2504 24.1602 29.3183 24.1602ZM4.5792 28.4787C3.79812 28.4787 3.16486 27.9227 3.16486 27.2369C3.16486 26.5511 3.79812 25.995 4.5792 25.995C5.36028 25.995 5.99354 26.5511 5.99354 27.2369C5.99354 27.9228 5.36028 28.4787 4.5792 28.4787ZM29.1636 28.4787C28.3825 28.4787 27.7492 27.9226 27.7492 27.2368C27.7492 26.551 28.3825 25.995 29.1636 25.995C29.9447 25.995 30.5779 26.551 30.5779 27.2368C30.5779 27.9226 29.9447 28.4787 29.1636 28.4787Z" fill="black"/>
</svg>
