<svg width="24" height="24" viewBox="0 0 24 24" fill="none" xmlns="http://www.w3.org/2000/svg">
<path d="M12.001 13.0859C9.62691 13.0859 7.70215 15.748 7.70215 19.0329V23.6006H16.298V19.0329C16.298 15.748 14.3732 13.0859 12.001 13.0859Z" fill="#010101"/>
<path d="M11.9998 11.9846C13.8799 11.9846 15.4039 9.87585 15.4039 7.27454C15.4039 4.67323 13.8799 2.56445 11.9998 2.56445C10.1198 2.56445 8.5957 4.67323 8.5957 7.27454C8.5957 9.87585 10.1198 11.9846 11.9998 11.9846Z" fill="#010101"/>
<path d="M19.702 9.42018C21.582 9.42018 23.1061 7.3113 23.1061 4.71009C23.1061 2.10838 21.5821 0 19.702 0C17.8218 0 16.2979 2.10826 16.2979 4.71009C16.2979 7.3113 17.8219 9.42018 19.702 9.42018Z" fill="#010101"/>
<path d="M4.29767 9.42018C6.17773 9.42018 7.70179 7.3113 7.70179 4.71009C7.70179 2.10838 6.17773 0 4.29767 0C2.41762 0 0.893555 2.10826 0.893555 4.71009C0.893647 7.3113 2.41762 9.42018 4.29767 9.42018Z" fill="#010101"/>
<path d="M19.7033 10.5215C17.8736 10.5215 16.3122 12.1028 15.6914 14.3311C16.4985 15.5579 16.9908 17.1884 16.9908 18.9789V21.0361H24.0002V16.4682C24.0002 13.1829 22.0755 10.5215 19.7033 10.5215Z" fill="#010101"/>
<path d="M7.00941 18.9789C7.00941 17.189 7.50173 15.5579 8.30883 14.3317C7.68819 12.1028 6.12715 10.5215 4.29889 10.5215C1.92476 10.5215 0 13.1829 0 16.4683V21.0361H7.00941V18.9789Z" fill="#010101"/>
</svg>
