<svg width="30" height="40" viewBox="0 0 30 40" fill="none" xmlns="http://www.w3.org/2000/svg">
<path d="M28.8778 10.4381C28.7776 10.453 28.6774 10.4696 28.5661 10.4696C28.493 10.4696 28.4294 10.4547 28.361 10.4481V36.6089C28.361 37.5427 27.6311 38.3044 26.7326 38.3044H3.25681C2.35837 38.3044 1.62847 37.5427 1.62847 36.6089V3.40463C1.62847 2.46915 2.35837 1.70915 3.25681 1.70915H21.5916C21.0604 1.32502 20.7853 0.675969 20.7663 0.0136719H3.25669C1.46136 0.0136719 0 1.53528 0 3.40463V36.6089C0 38.4783 1.46136 39.9999 3.25669 39.9999H26.7309C28.5278 39.9999 29.9876 38.4783 29.9876 36.6089V11.1004C29.5073 11.0127 29.1369 10.7709 28.8776 10.4381L28.8778 10.4381Z" fill="black"/>
<path d="M29.1713 11.9754C29.1682 11.9754 29.1618 11.9771 29.1539 11.9754H20.8705C20.4125 11.9754 20.042 11.5963 20.042 11.1277L20.0404 0.848831C20.0404 0.49119 20.2598 0.171614 20.589 0.0507682C20.9166 -0.0717557 21.2855 0.0325549 21.5081 0.309062L29.7089 10.4819C29.8886 10.6376 29.9999 10.8694 29.9999 11.1277C30.0015 11.5946 29.631 11.9754 29.1714 11.9754L29.1713 11.9754ZM21.6993 10.2799H27.4001L21.6993 3.20979V10.2799Z" fill="black"/>
<path d="M22.5037 26.4752H7.48911C5.69378 26.4752 4.23242 24.9536 4.23242 23.0843V18.5277C4.23242 16.6583 5.69378 15.1367 7.48911 15.1367H22.5037C24.299 15.1367 25.7604 16.6583 25.7604 18.5277V23.0843C25.7604 24.9553 24.3006 26.4752 22.5037 26.4752ZM7.48911 16.8322C6.59067 16.8322 5.86077 17.5922 5.86077 18.5277V23.0843C5.86077 24.0198 6.59067 24.7798 7.48911 24.7798H22.5037C23.4021 24.7798 24.132 24.0198 24.132 23.0843V18.5277C24.132 17.5922 23.4021 16.8322 22.5037 16.8322H7.48911Z" fill="black"/>
<path d="M10.04 18.0276C10.4169 18.0276 10.7381 18.074 11.0084 18.1667C11.2772 18.2594 11.4998 18.3869 11.6747 18.5492C11.8496 18.7114 11.9784 18.9035 12.0627 19.1254C12.1454 19.3473 12.1867 19.5857 12.1867 19.8423C12.1867 20.1188 12.1438 20.3738 12.0595 20.6056C11.9737 20.8374 11.8433 21.0361 11.6683 21.2C11.4934 21.3639 11.2692 21.4947 11.0005 21.5858C10.7317 21.6785 10.4105 21.7249 10.0416 21.7249H9.39599V23.5826H8.15723V18.0244L10.04 18.0261L10.04 18.0276ZM10.04 20.7546C10.3628 20.7546 10.595 20.6735 10.7365 20.5145C10.878 20.3539 10.9496 20.1304 10.9496 19.8423C10.9496 19.7148 10.9321 19.5989 10.8955 19.4946C10.8589 19.3903 10.8033 19.3009 10.7285 19.2264C10.6538 19.1519 10.56 19.0939 10.4455 19.0525C10.331 19.0111 10.1974 18.9913 10.0416 18.9913H9.39599V20.753L10.04 20.7546Z" fill="black"/>
<path d="M17.666 20.8043C17.666 21.2067 17.5992 21.5759 17.4656 21.917C17.3336 22.2564 17.1444 22.5495 16.9043 22.7979C16.6626 23.0462 16.3716 23.2383 16.0313 23.3774C15.6894 23.5164 15.3125 23.5843 14.8975 23.5843H12.8223V18.0261H14.8975C15.3125 18.0261 15.691 18.0957 16.0313 18.2364C16.3732 18.3755 16.6626 18.5692 16.9043 18.8159C17.146 19.0626 17.3336 19.3557 17.4656 19.6951C17.5992 20.0362 17.666 20.4054 17.666 20.8045V20.8043ZM16.397 20.8043C16.397 20.5295 16.362 20.2811 16.2936 20.0593C16.2253 19.8374 16.1267 19.6503 15.9995 19.4963C15.8722 19.3423 15.7132 19.2248 15.5288 19.142C15.3443 19.0592 15.1328 19.0178 14.8959 19.0178H14.0674V22.5926H14.8959C15.1328 22.5926 15.3443 22.5512 15.5288 22.4684C15.7148 22.3856 15.8723 22.268 15.9995 22.1124C16.1267 21.9584 16.2253 21.7713 16.2936 21.5511C16.3636 21.3309 16.397 21.0809 16.397 20.8044V20.8043Z" fill="black"/>
<path d="M19.6406 19.0192V20.4266H21.4646V21.4217H19.6406V23.5858H18.3955V18.0276H21.8319V19.0194L19.6406 19.0192Z" fill="black"/>
</svg>
